<?xml version="1.0" standalone="no"?>
<!DOCTYPE svg PUBLIC "-//W3C//DTD SVG 20010904//EN"
 "http://www.w3.org/TR/2001/REC-SVG-20010904/DTD/svg10.dtd">
<svg version="1.0" xmlns="http://www.w3.org/2000/svg"
 width="250.000000pt" height="208.000000pt" viewBox="0 0 250.000000 208.000000"
 preserveAspectRatio="xMidYMid meet">

<g transform="translate(0.000000,208.000000) scale(0.100000,-0.100000)"
fill="#000000" stroke="none">
<path d="M1075 2073 c-204 -49 -348 -176 -409 -360 l-18 -53 -88 0 c-118 0
-217 -22 -303 -68 -240 -125 -325 -402 -195 -631 39 -69 128 -158 191 -191 26
-14 47 -31 47 -37 0 -7 -11 -46 -25 -86 -78 -234 -13 -437 181 -562 195 -127
479 -108 672 44 28 23 54 41 58 41 3 0 26 -18 50 -39 196 -173 545 -150 759
50 86 81 127 163 133 270 5 89 -9 162 -43 232 -14 27 -24 51 -23 52 2 1 37 22
78 45 237 137 330 387 222 598 -101 198 -300 302 -546 288 -95 -5 -98 -5 -104
17 -3 12 -23 56 -44 98 -43 87 -138 185 -223 231 -101 54 -277 83 -370 61z
m196 -63 c142 -27 271 -127 338 -261 22 -42 42 -96 46 -119 l7 -42 42 6 c91
15 204 18 260 7 123 -23 242 -98 305 -193 145 -215 56 -470 -207 -599 -48 -23
-88 -43 -90 -45 -2 -1 10 -26 27 -55 64 -115 79 -250 40 -354 -65 -174 -320
-306 -531 -276 -108 16 -175 47 -244 115 -34 34 -64 68 -66 76 -4 11 -24 -5
-70 -52 -190 -197 -503 -211 -698 -32 -126 117 -154 297 -75 487 42 98 43 92
-17 119 -29 14 -80 47 -113 75 -235 197 -195 549 78 678 96 46 169 59 298 52
l105 -6 11 54 c54 256 294 414 554 365z"/>
<path d="M938 1448 l-3 -183 -214 -3 -214 -2 6 -167 c4 -91 7 -195 7 -230 l0
-63 210 0 210 0 0 -180 0 -180 250 0 250 0 0 180 0 180 200 0 200 0 0 230 0
230 -200 0 -200 0 0 185 0 185 -250 0 -250 0 -2 -182z"/>
</g>
</svg>
